<svg width="43" height="37" viewBox="0 0 43 37" fill="none" xmlns="http://www.w3.org/2000/svg">
<path d="M36.8523 12.2767L37.7216 12.5902C40.5042 13.5909 41.9397 16.6331 40.9278 19.3851C40.6895 20.0333 40.3255 20.6294 39.8564 21.1398L39.5043 21.5228C36.1747 25.1451 32.3051 28.2433 28.0295 30.71L21.6869 34.3692C21.6199 34.4078 21.5371 34.4078 21.4702 34.3692L15.1275 30.71C10.8519 28.2433 6.98234 25.1451 3.65269 21.5228L3.30061 21.1398C1.30893 18.973 1.47039 15.6196 3.66124 13.6498C4.1773 13.1858 4.77994 12.8259 5.43538 12.5902L6.30591 12.2741M14.4697 25.057L7.59563 15.9927C5.45795 13.1738 6.0356 9.17474 8.88584 7.06055C9.44053 6.6491 10.0587 6.32879 10.7165 6.11194L11.902 5.7211C12.7213 5.45101 13.5492 5.21615 14.3836 5.01652L14.7754 4.92531C14.0734 6.20679 13.8688 7.74421 14.2981 9.23025M14.2981 9.23025L18.2525 22.9198M14.2981 9.23025C13.5322 6.57898 14.7842 3.76417 17.2778 2.53104C19.9852 1.19224 23.1718 1.19224 25.8792 2.53104C28.3728 3.76417 29.6248 6.57898 28.8589 9.23025M24.9036 22.9195L28.8589 9.23025M28.8589 9.23025C29.288 7.74504 29.0838 6.20851 28.3828 4.92746C29.3494 5.14375 30.308 5.40889 31.255 5.7211L32.4406 6.11194C35.8205 7.22621 37.6472 10.8394 36.5205 14.1822C36.3013 14.8328 35.9774 15.4441 35.5614 15.9927L28.6861 25.056" stroke="#4C7766" stroke-width="2" stroke-linecap="round"/>
<path fill-rule="evenodd" clip-rule="evenodd" d="M32.3297 27.9174L32.3302 31.9714C32.3302 33.7332 30.886 35.1615 29.1046 35.1615H14.0523C12.2709 35.1615 10.8268 33.7332 10.8268 31.9714L10.8247 27.9155C12.2062 28.9202 13.6423 29.8532 15.1274 30.7099L21.4701 34.3692C21.5371 34.4078 21.6198 34.4078 21.6868 34.3692L28.0295 30.7099C29.5137 29.8537 30.9489 28.9213 32.3297 27.9174Z" stroke="#4C7766" stroke-width="2" stroke-linecap="round"/>
</svg>
