<svg width="32" height="32" viewBox="0 0 32 32" fill="none" xmlns="http://www.w3.org/2000/svg">
<g clip-path="url(#clip0_200_4702)">
<path d="M29.056 24.9381C28.5721 26.0561 27.9993 27.0852 27.3356 28.0313C26.4309 29.3211 25.6902 30.214 25.1194 30.7097C24.2345 31.5235 23.2863 31.9403 22.2711 31.964C21.5422 31.964 20.6632 31.7566 19.64 31.3359C18.6135 30.9171 17.6701 30.7097 16.8075 30.7097C15.9029 30.7097 14.9326 30.9171 13.8948 31.3359C12.8555 31.7566 12.0182 31.9759 11.378 31.9976C10.4044 32.0391 9.43394 31.6105 8.46528 30.7097C7.84703 30.1705 7.07372 29.2461 6.14733 27.9365C5.15338 26.538 4.33623 24.9163 3.69605 23.0675C3.01044 21.0705 2.66675 19.1368 2.66675 17.2646C2.66675 15.1201 3.13014 13.2705 4.05831 11.7205C4.78777 10.4755 5.7582 9.49339 6.97278 8.77243C8.18736 8.05146 9.49971 7.68407 10.913 7.66056C11.6863 7.66056 12.7004 7.89976 13.9606 8.36987C15.2173 8.84156 16.0241 9.08077 16.3779 9.08077C16.6424 9.08077 17.5388 8.80107 19.0583 8.24346C20.4953 7.72634 21.7081 7.51222 22.7017 7.59656C25.3939 7.81384 27.4166 8.87514 28.7617 10.7872C26.3539 12.2461 25.1628 14.2895 25.1865 16.9109C25.2083 18.9527 25.949 20.6518 27.4047 22.0009C28.0645 22.627 28.8012 23.111 29.6209 23.4547C29.4432 23.9702 29.2555 24.464 29.056 24.9381ZM22.8814 0.640526C22.8814 2.24089 22.2967 3.73515 21.1313 5.11822C19.725 6.76242 18.0239 7.71251 16.1792 7.56259C16.1557 7.37059 16.1421 7.16853 16.1421 6.95619C16.1421 5.41984 16.8109 3.77564 17.9986 2.43129C18.5916 1.75062 19.3457 1.18465 20.2603 0.733164C21.1728 0.288417 22.036 0.042462 22.8478 0.000343323C22.8715 0.214287 22.8814 0.428245 22.8814 0.640505V0.640526Z" fill="black"/>
</g>
<defs>
<clipPath id="clip0_200_4702">
<rect width="32" height="32" fill="white"/>
</clipPath>
</defs>
</svg>
