<svg width="43" height="42" viewBox="0 0 43 42" fill="none" xmlns="http://www.w3.org/2000/svg">
<path d="M31.5722 17.5985C31.7671 17.7934 31.9153 18.0206 32.0142 18.2649L34.7844 18.2521C35.5861 18.2479 36.3103 17.7781 36.6338 17.0527C37.0544 16.1091 36.683 15.0183 35.8052 14.5085L35.626 14.4178L37.6652 13.7371C38.1753 13.5665 38.5961 13.2027 38.8354 12.7256C39.3343 11.7308 38.9232 10.5242 37.9173 10.0308L37.1176 9.63716L37.6911 9.07192C38.8747 7.90129 38.8747 6.00332 37.6911 4.83268C36.5074 3.66205 34.5884 3.66205 33.4047 4.83268L32.807 5.42198L32.362 4.53663C32.1228 4.05953 31.7019 3.69577 31.1918 3.52519C30.1281 3.16949 28.9742 3.73396 28.6146 4.78597L27.9839 6.62503L27.9683 6.57999C27.6773 5.79752 26.9258 5.27592 26.0828 5.27142C24.9669 5.26547 24.0574 6.15531 24.0514 7.25893L24.0357 10.2906C24.2245 10.384 24.4006 10.5074 24.5562 10.6597M31.5722 17.5985C30.7825 16.8091 29.4952 16.8022 28.697 17.5832L8.59831 37.2478C8.10394 37.7314 7.3939 37.9317 6.71595 37.7786M31.5722 17.5985C32.1638 18.19 32.3256 19.0802 31.9809 19.8377L33.7412 18.9773C34.7477 18.4849 35.9672 18.8927 36.465 19.8881C36.7037 20.3655 36.7412 20.917 36.5693 21.4217L36.2082 22.4803L38.1653 22.4805C39.7434 22.4805 41.0228 23.7458 41.0228 25.3067C41.0228 26.8675 39.7434 28.1328 38.1653 28.1328L36.2082 28.131L36.5693 29.1917C36.9278 30.2441 36.3559 31.3847 35.2918 31.7393C34.7815 31.9093 34.2239 31.8722 33.7412 31.6361L31.8151 30.6937L31.8745 30.8809C32.1307 31.8552 31.6134 32.8863 30.6414 33.2593C29.894 33.546 29.046 33.3717 28.4761 32.8141L23.6915 28.1328L12.1085 39.4657C10.5242 41.0158 7.97342 41.0158 6.38908 39.4657L4.04941 37.1766L6.71595 37.7786M6.71595 37.7786L4.62946 37.3065L4.15191 35.2428M4.15191 35.2428C3.99714 34.5722 4.1996 33.87 4.68867 33.3811M4.15191 35.2428L4.76066 37.88L2.44609 35.566C0.878746 33.9991 0.878746 31.4764 2.44609 29.9095L13.9049 18.4537L9.17158 13.7217C8.6078 13.1581 8.43152 12.3194 8.72148 11.5802C9.0986 10.6189 10.1412 10.1073 11.1263 10.3607L11.3156 10.4194L10.3627 8.51446C10.124 8.03711 10.0864 7.48558 10.2584 6.9809C10.6169 5.92852 11.7702 5.36285 12.8343 5.71745L13.9067 6.07458L13.9049 4.13904C13.9049 2.57819 15.1842 1.31288 16.7624 1.31288C18.3406 1.31288 19.62 2.57819 19.62 4.13904L19.6202 6.07458L20.6906 5.71745C21.2009 5.5474 21.7585 5.5845 22.2412 5.82062C23.2476 6.31298 23.66 7.51906 23.1621 8.51446L22.2922 10.2554C23.0581 9.91456 23.9581 10.0745 24.5562 10.6597M4.68867 33.3811L18.676 19.3962L24.0138 14.1185L24.013 14.0606L24.5717 13.5033M4.68867 33.3811L24.5717 13.5033M24.5717 13.5033C25.3614 12.7138 25.3545 11.4407 24.5562 10.6597M32.1612 10.2294L30.1187 12.2495M16.7624 9.8833L16.7624 12.7401M11.7246 22.0354L20.2972 30.5139M32.3572 25.3067L29.4686 25.3067" stroke="#4C7766" stroke-width="2" stroke-linecap="round"/>
</svg>
