<svg width="41" height="42" viewBox="0 0 41 42" fill="none" xmlns="http://www.w3.org/2000/svg">
<path d="M5.89852 12.6409L10.2712 13.3691C10.663 13.4344 11.0596 13.4672 11.4568 13.4672C15.4399 13.4672 18.6689 10.2408 18.6689 6.26081L14.4121 8.38752V2.00739L13.9872 2.0178C9.48267 2.23904 5.89852 5.9584 5.89852 10.5142V12.6409ZM5.89852 12.6409V14.001C5.89852 15.8771 6.51923 17.7006 7.66403 19.1877L10.1553 22.4238M9.09112 23.2745H6.40097C4.78861 23.2745 3.31464 24.1847 2.59357 25.6257L1.64172 27.5279M7.60124 29.6546H6.40097C4.78861 29.6546 3.31464 30.5649 2.59357 32.0059L1.64172 33.908M13.3479 36.0348H10.6578C9.04541 36.0348 7.57144 36.945 6.85037 38.386L5.89852 40.2882M32.5035 23.2745H35.1936C36.806 23.2745 38.28 24.1847 39.001 25.6257L39.9529 27.5279M33.9934 29.6546H35.1936C36.806 29.6546 38.28 30.5649 39.001 32.0059L39.9529 33.908M28.2467 36.0348H30.9368C32.5492 36.0348 34.0232 36.945 34.7442 38.386L35.6961 40.2882M35.6961 12.6409V14.001C35.6961 15.8771 35.0754 17.7006 33.9306 19.1877L31.4393 22.4238M35.6961 12.6409L31.3235 13.3691C30.9316 13.4344 30.535 13.4672 30.1378 13.4672C26.1547 13.4672 22.9257 10.2408 22.9257 6.26081L27.1825 8.38752V2.00739L27.6074 2.0178C32.1119 2.23904 35.6961 5.9584 35.6961 10.5142V12.6409ZM12.9018 35.6576L14.6782 36.6993C18.4562 38.9152 23.1384 38.9152 26.9164 36.6993L28.6928 35.6576C31.4606 34.0343 33.4215 31.3269 34.0998 28.1925C34.65 25.6496 33.033 23.1425 30.4881 22.5926L30.3359 22.5624L27.9806 22.2111C23.2177 21.5061 18.3769 21.5061 13.614 22.2111L11.4119 22.5371C8.83629 22.9184 7.05767 25.3138 7.43924 27.8873C7.45441 27.9896 7.47294 28.0914 7.49482 28.1925C8.17307 31.3269 10.134 34.0343 12.9018 35.6576Z" stroke="#4C7766" stroke-width="2" stroke-linecap="round"/>
<path fill-rule="evenodd" clip-rule="evenodd" d="M17.6047 18.1704V17.9577V18.1704Z" stroke="#4C7766" stroke-width="1.5" stroke-linecap="round" stroke-linejoin="round"/>
<path fill-rule="evenodd" clip-rule="evenodd" d="M23.9899 18.1704V17.9577V18.1704Z" stroke="#4C7766" stroke-width="1.5" stroke-linecap="round" stroke-linejoin="round"/>
</svg>
