<svg width="32" height="32" viewBox="0 0 32 32" fill="none" xmlns="http://www.w3.org/2000/svg">
<circle cx="16" cy="16" r="16" fill="#354B43"/>
<mask id="mask0_257_2197" style="mask-type:alpha" maskUnits="userSpaceOnUse" x="6" y="6" width="20" height="20">
<rect x="6.39996" y="6.4003" width="19.2" height="19.2" fill="#D9D9D9"/>
</mask>
<g mask="url(#mask0_257_2197)">
<path d="M10.3999 21.5999H11.5399L19.3599 13.7799L18.2199 12.6399L10.3999 20.4599V21.5999ZM8.79987 23.1999V19.7999L19.3599 9.25993C19.5199 9.11326 19.6965 8.99993 19.8899 8.91993C20.0832 8.83993 20.2865 8.79993 20.4999 8.79993C20.7132 8.79993 20.9199 8.83993 21.1199 8.91993C21.3199 8.99993 21.4932 9.11993 21.6399 9.27993L22.7399 10.3999C22.8999 10.5466 23.0165 10.7199 23.0899 10.9199C23.1632 11.1199 23.1999 11.3199 23.1999 11.5199C23.1999 11.7333 23.1632 11.9366 23.0899 12.1299C23.0165 12.3233 22.8999 12.4999 22.7399 12.6599L12.1999 23.1999H8.79987ZM18.7799 13.2199L18.2199 12.6399L19.3599 13.7799L18.7799 13.2199Z" fill="#EBE6E0"/>
</g>
</svg>
