<svg width="46" height="39" viewBox="0 0 46 39" fill="none" xmlns="http://www.w3.org/2000/svg">
<path fill-rule="evenodd" clip-rule="evenodd" d="M15.3146 1.06705C20.0198 1.06705 24.1819 6.52685 26.715 12.5195C28.5774 9.5606 30.9758 7.36538 33.5925 7.36538C39.5305 7.36538 44.3442 18.6699 44.3442 24.5427C44.3442 30.4154 39.5305 35.1762 33.5925 35.1762C30.6834 35.1762 28.0442 34.0336 26.1086 32.1774C23.5487 35.2567 19.6636 37.2211 15.3146 37.2211C7.59521 37.2211 1.3374 31.0321 1.3374 23.3975C1.3374 21.4542 1.74287 19.0533 2.47469 16.5537L2.80808 15.4775C5.102 8.45628 9.84086 1.06705 15.3146 1.06705ZM15.3146 37.2211C23.034 37.2211 29.2918 31.0321 29.2918 23.3975C29.2918 21.4542 28.8864 19.0533 28.1545 16.5537L27.8211 15.4775C25.5272 8.45628 20.7884 1.06705 15.3146 1.06705C9.84086 1.06705 5.102 8.45628 2.80808 15.4775L2.47469 16.5537C1.74287 19.0533 1.3374 21.4542 1.3374 23.3975C1.3374 31.0321 7.59521 37.2211 15.3146 37.2211Z" stroke="#4C7766" stroke-width="2" stroke-linecap="round"/>
</svg>
