<svg width="44" height="33" viewBox="0 0 44 33" fill="none" xmlns="http://www.w3.org/2000/svg">
<path fill-rule="evenodd" clip-rule="evenodd" d="M13.0144 11.2155C22.9904 5.06142 36.1218 8.07087 42.3443 17.9373L41.8527 18.6812C40.6698 20.3917 39.237 21.9214 37.5999 23.2199C29.2312 29.8574 17.3443 29.2266 9.73885 22.1752C8.51945 25.2847 5.35521 27.3827 1.81441 27.1287L1.48779 27.0985V26.5504C1.48779 23.2652 2.94201 20.2644 5.29833 18.2111C3.10782 16.5302 1.6652 13.9575 1.50306 11.0649L1.48779 10.5189V8.77605L1.93351 8.79377C5.28193 9.00845 8.14884 11.0386 9.50218 13.9262C10.5695 12.9068 11.7475 11.997 13.0144 11.2155ZM25.2216 27.8302L25.5045 27.8166C23.9369 29.3605 22.0153 30.5332 19.8282 31.1683C18.129 31.6617 16.4187 31.7872 14.7695 31.5899C15.5748 29.9721 16.1994 28.2427 16.623 26.4409C19.3643 27.4861 22.2972 27.9557 25.2216 27.8302ZM27.3204 7.94207L27.543 8.27346C23.3291 7.62539 18.9022 8.21993 14.8646 10.1951C13.6307 7.61668 11.9757 5.36899 10.0263 3.53221C10.8674 3.06976 11.7681 2.69206 12.7189 2.41597C18.3308 0.786435 24.0626 3.16942 27.3204 7.94207Z" stroke="#4C7766" stroke-width="2" stroke-linecap="round"/>
<path fill-rule="evenodd" clip-rule="evenodd" d="M32.6677 15.9414V15.7288V15.9414Z" stroke="#4C7766" stroke-width="1.5" stroke-linecap="round" stroke-linejoin="round"/>
</svg>
