<svg width="41" height="42" viewBox="0 0 41 42" fill="none" xmlns="http://www.w3.org/2000/svg">
<path fill-rule="evenodd" clip-rule="evenodd" d="M5.70084 19.9436C10.1839 23.3033 11.0923 29.6582 7.72994 34.1377C7.26848 34.7524 6.73894 35.3123 6.15182 35.8067L5.70084 36.1651C1.21783 32.8054 0.309374 26.4505 3.67175 21.9711C4.13321 21.3563 4.66275 20.7964 5.24987 20.302L5.70084 19.9436ZM13.8178 11.8328C18.3008 15.1925 19.2093 21.5474 15.8469 26.0269C15.3854 26.6416 14.8559 27.2015 14.2688 27.6959L13.8178 28.0544C9.33477 24.6947 8.42631 18.3398 11.7887 13.8603C12.2501 13.2455 12.7797 12.6857 13.3668 12.1912L13.8178 11.8328ZM21.9347 3.72203C26.4177 7.08174 27.3262 13.4366 23.9638 17.9161C23.5024 18.5309 22.9728 19.0907 22.3857 19.5852L21.9347 19.9436C17.4517 16.5839 16.5433 10.229 19.9056 5.74952C20.3671 5.13475 20.8966 4.5749 21.4837 4.08045L21.9347 3.72203ZM38.1686 19.9436C34.8066 24.4229 28.447 25.3308 23.9642 21.9714C23.3488 21.5103 22.7884 20.9811 22.2935 20.3943L21.9347 19.9436C25.2968 15.4643 31.6563 14.5564 36.1392 17.9158C36.7545 18.3769 37.3149 18.9061 37.8099 19.4929L38.1686 19.9436ZM30.0517 28.0544C26.6896 32.5337 20.3301 33.4416 15.8472 30.0822C15.2318 29.621 14.6714 29.0918 14.1765 28.5051L13.8178 28.0544C17.1798 23.5751 23.5394 22.6672 28.0222 26.0265C28.6376 26.4877 29.198 27.0169 29.6929 27.6037L30.0517 28.0544ZM21.9347 36.1651C18.5727 40.6444 12.2131 41.5523 7.73029 38.193C7.11491 37.7318 6.55451 37.2026 6.05959 36.6158L5.70084 36.1651C9.06288 31.6858 15.4224 30.7779 19.9053 34.1373C20.5207 34.5985 21.0811 35.1277 21.576 35.7144L21.9347 36.1651ZM39.8497 2.04224C40.6422 7.58554 36.7876 12.7208 31.2404 13.5126C30.479 13.6213 29.7083 13.643 28.9432 13.5778L28.3705 13.5122C27.5781 7.96931 31.4326 2.83404 36.9799 2.04222C37.9317 1.90637 38.8979 1.90638 39.8497 2.04224Z" stroke="#4C7766" stroke-width="2" stroke-linecap="round"/>
</svg>
