<svg width="542" height="683" viewBox="0 0 542 683" fill="none" xmlns="http://www.w3.org/2000/svg">
  <g clip-path="url(#clip0_55_2)">
    <path
      d="M530.776 457.549C498.233 567.25 421.194 632.272 359.163 662.456C349.533 667.11 340.302 670.966 331.668 673.958C327.816 675.288 323.831 672.429 323.831 668.373V141.281C323.831 137.491 327.351 134.699 331.071 135.496C352.124 140.35 369.457 165.747 381.943 196.663C395.824 231.035 403.594 272.123 403.594 299.249V401.968C403.594 405.226 400.937 407.885 397.683 407.885H365.008C361.754 407.885 359.097 410.545 359.097 413.802V612.592C359.097 617.18 364.144 620.039 368.063 617.645C416.213 587.927 471.136 534.207 496.838 447.51C507.73 410.944 507.066 262.749 506.07 188.751C505.671 162.888 490.662 139.485 467.285 128.449L296.934 47.8692C293.016 46.0076 288.566 48.8664 288.566 53.188V677.149C288.566 680.407 285.909 683.066 282.655 683.066H253.234C201.697 683.066 58.7091 618.244 11.0906 457.682C2.05841 426.7 -1.52792 336.148 0.597312 188.285C1.19503 148.66 23.7756 113.49 59.5724 96.6026L182.836 38.1624L209.667 25.4637C213.585 23.6022 218.035 26.461 218.035 30.7825V558.274C218.035 562.064 214.515 564.856 210.796 564.058C189.743 559.205 172.409 533.808 159.923 502.892C146.043 468.586 138.272 427.365 138.272 400.306V297.587C138.272 294.329 140.929 291.67 144.183 291.67H176.925C180.179 291.67 182.836 289.01 182.836 285.752V86.5634C182.836 82.2419 178.32 79.383 174.468 81.2446L74.6483 128.449C51.2708 139.552 36.2613 162.888 35.8628 188.751C34.8002 262.682 34.1361 410.944 45.0279 447.51C86.6027 587.594 204.487 641.646 246.792 647.165C250.312 647.63 253.367 644.838 253.367 641.314V8.51007C253.367 6.24959 254.695 4.18855 256.754 3.19128C265.786 -1.06376 276.279 -1.06376 285.312 3.19128L288.632 4.78692L482.427 96.5362C518.29 113.49 540.804 148.66 541.402 188.219C543.461 336.081 539.941 426.7 530.776 457.549Z"
      fill="#F8F2EA" />
  </g>
  <defs>
    <clipPath id="clip0_55_2">
      <rect width="542" height="683" fill="white" />
    </clipPath>
  </defs>
</svg>
