<svg width="42" height="41" viewBox="0 0 42 41" fill="none" xmlns="http://www.w3.org/2000/svg">
<path d="M2.30067 38.8691L33.557 7.95628M2.30067 38.8691L5.07652 36.1238C7.35958 33.8658 7.8081 30.3659 6.16682 27.616M2.30067 38.8691L11.2583 30.0099C13.3454 27.9458 13.3454 24.5993 11.2583 22.5351M2.30067 38.8691L18.8609 22.4909C20.1082 21.2573 20.1082 19.2573 18.8609 18.0237M2.30067 38.8691L28.7443 12.7161C29.5717 11.8978 29.5717 10.5711 28.7443 9.75275M2.30067 38.8691L25.7033 15.7237C26.5307 14.9054 26.5307 13.5787 25.7033 12.7604M2.30067 38.8691L5.1086 36.0921C7.38781 33.8379 10.8981 33.3428 13.7236 34.8771M2.30067 38.8691L11.2136 30.0542C13.3253 27.9656 16.7492 27.9656 18.8609 30.0542M2.30067 38.8691L18.8162 22.5351C20.0882 21.2771 22.1505 21.2771 23.4225 22.5351M2.30067 38.8691L28.6995 12.7604C29.5517 11.9176 30.9332 11.9176 31.7853 12.7604M2.30067 38.8691L25.6585 15.768C26.5106 14.9252 27.8922 14.9252 28.7443 15.768M8.95204 20.2092L10.0975 22.0973C11.014 23.6081 10.5187 25.5676 8.99118 26.474C8.48989 26.7715 7.91627 26.9286 7.33167 26.9286L5.04072 26.9286C3.25932 26.9286 1.81521 25.5004 1.81521 23.7386C1.81521 23.1604 1.97409 22.5931 2.27487 22.0973L3.42034 20.2092C4.33687 18.6984 6.31817 18.2085 7.8457 19.115M8.95204 20.2092C8.67965 19.7602 8.29969 19.3844 7.8457 19.115M8.95204 20.2092L9.82417 21.652C10.1153 21.7374 10.4236 21.7832 10.7427 21.7832L13.0336 21.7832C13.6182 21.7832 14.1918 21.6261 14.6931 21.3286C16.2207 20.4222 16.716 18.4627 15.7995 16.9519M7.8457 19.115C7.74556 19.0555 7.64346 19.0021 7.53985 18.9546C7.52417 18.8371 7.51716 18.7159 7.51716 18.5932C7.51716 18.015 7.67604 17.4477 7.97681 16.9519L9.12229 15.0638C10.0388 13.553 12.0201 13.0631 13.5477 13.9696M19.3036 31.2022L21.2128 32.3351C21.6667 32.6045 22.0467 32.9803 22.3191 33.4293C23.2356 34.9401 22.7403 36.8996 21.2128 37.8061M19.3036 31.2022C17.7761 30.2958 15.7948 30.7857 14.8783 32.2964C14.5775 32.7922 14.4186 33.3595 14.4186 33.9377L14.4186 36.2035C14.4186 37.9653 15.8627 39.3935 17.6441 39.3935C18.2287 39.3935 18.8023 39.2364 19.3036 38.9389L21.2128 37.8061M19.3036 31.2022L19.7532 31.4706C19.6673 31.1833 19.6212 30.879 19.6212 30.5642L19.6212 28.2984C19.6212 27.7202 19.7801 27.1529 20.0808 26.6571C20.9974 25.1464 22.9787 24.6565 24.5062 25.563M21.2128 37.8061C22.6402 36.959 23.1662 35.1925 22.4793 33.7338C22.5999 33.7473 22.7225 33.7543 22.8467 33.7543C23.4313 33.7543 24.0049 33.5971 24.5062 33.2996L26.4153 32.1668C27.9429 31.2603 28.4382 29.3008 27.5217 27.79M15.7995 16.9519L14.654 15.0638C14.3816 14.6148 14.0016 14.239 13.5477 13.9696M15.7995 16.9519C15.8608 17.053 15.9158 17.1561 15.9646 17.2607L16.1949 17.2718L18.4859 17.2718C19.0705 17.2718 19.6441 17.1147 20.1454 16.8172C21.6729 15.9108 22.1683 13.9512 21.2517 12.4405L20.1063 10.5523C19.8339 10.1033 19.4539 9.72754 18.9999 9.45814C17.4724 8.55169 15.4911 9.04157 14.5745 10.5523L13.4291 12.4405C13.1935 12.8288 13.0449 13.2611 12.9943 13.7078C13.1834 13.7763 13.3686 13.8633 13.5477 13.9696M27.5217 27.79C27.2493 27.341 26.8693 26.9652 26.4153 26.6958L24.5062 25.563M27.5217 27.79C27.6291 27.9671 27.7171 28.1503 27.7861 28.34C28.238 28.2872 28.6751 28.1403 29.0678 27.9073L30.9769 26.7744C32.5044 25.868 32.9998 23.9084 32.0832 22.3977C31.8108 21.9487 31.4309 21.5729 30.9769 21.3035L29.0678 20.1706C27.5402 19.2642 25.5589 19.754 24.6424 21.2648C24.3416 21.7606 24.1827 22.3279 24.1827 22.9061L24.1827 25.1718L24.194 25.3997C24.2998 25.4479 24.404 25.5023 24.5062 25.563M26.2735 7.68501C27.165 9.15451 26.6832 11.0605 25.1973 11.9422C24.7097 12.2316 24.1518 12.3844 23.5831 12.3844L23.2618 12.3844C21.5291 12.3844 20.1244 10.9952 20.1244 9.28147C20.1244 8.71908 20.2789 8.16726 20.5715 7.68501C21.5162 6.12776 23.5585 5.6228 25.1331 6.55715C25.601 6.83484 25.9927 7.22219 26.2735 7.68501ZM35.3966 16.7079C36.2881 18.1774 35.8063 20.0834 34.3204 20.9651C33.8328 21.2544 33.2749 21.4073 32.7062 21.4073L32.3849 21.4073C30.6522 21.4073 29.2475 20.018 29.2475 18.3043C29.2475 17.7419 29.4021 17.1901 29.6946 16.7079C30.6394 15.1506 32.6816 14.6457 34.2562 15.58C34.7241 15.8577 35.1158 16.2451 35.3966 16.7079ZM32.3555 4.67739C33.247 6.14689 32.7652 8.05291 31.2794 8.93461C30.7918 9.22395 30.2339 9.3768 29.6652 9.3768L29.3439 9.3768C27.6112 9.3768 26.2065 7.98756 26.2065 6.27385C26.2065 5.71145 26.361 5.15964 26.6536 4.67739C27.5983 3.12014 29.6406 2.61518 31.2151 3.54953C31.6831 3.82722 32.0748 4.21457 32.3555 4.67739ZM38.4376 10.6926C39.3291 12.1621 38.8473 14.0682 37.3615 14.9498C36.8739 15.2392 36.3159 15.392 35.7473 15.392L35.426 15.392C33.6932 15.392 32.2886 14.0028 32.2886 12.2891C32.2886 11.7267 32.4431 11.1749 32.7357 10.6926C33.6804 9.13539 35.7227 8.63043 37.2972 9.56478C37.7652 9.84247 38.1568 10.2298 38.4376 10.6926ZM39.9581 3.17358C40.8496 4.64308 40.3678 6.5491 38.882 7.43079C38.3944 7.72014 37.8365 7.87299 37.2678 7.87299L36.9465 7.87299C35.2138 7.87299 33.8091 6.48375 33.8091 4.77003C33.8091 4.20764 33.9636 3.65582 34.2562 3.17358C35.2009 1.61633 37.2432 1.11137 38.8177 2.04572C39.2857 2.32341 39.6774 2.71076 39.9581 3.17358Z" stroke="#4C7766" stroke-width="2" stroke-linecap="round"/>
</svg>
