<svg width="23" height="42" viewBox="0 0 23 42" fill="none" xmlns="http://www.w3.org/2000/svg">
<path d="M6.27785 1.94034H17.0296M2.63852 17.9152L4.63561 14.7784C6.38695 12.0275 7.51267 8.93296 7.93476 5.70912L8.42819 1.94034H14.8792L15.3253 5.47007C15.7397 8.74873 16.8716 11.8987 18.6423 14.7006L20.6765 17.9196C21.1037 18.5956 21.3302 19.3767 21.3302 20.1739V35.9677C21.3302 38.3168 19.4048 40.2211 17.0296 40.2211H6.27785C3.90265 40.2211 1.97717 38.3168 1.97717 35.9677V20.1816C1.97717 19.3796 2.20644 18.5939 2.63852 17.9152ZM1.97717 25.3341L3.32821 25.7795C6.52227 26.8325 10.0354 26.2687 12.7289 24.2708L13.1829 23.934C15.4094 22.2825 18.3465 21.9398 20.8864 23.0049L21.3302 23.2074V35.9677C21.3302 38.3168 19.4048 40.2211 17.0296 40.2211H6.27785C3.90265 40.2211 1.97717 38.3168 1.97717 35.9677V25.3341Z" stroke="#4C7766" stroke-width="2" stroke-linecap="round"/>
</svg>
