<svg width="33" height="39" viewBox="0 0 33 39" fill="none" xmlns="http://www.w3.org/2000/svg">
<path fill-rule="evenodd" clip-rule="evenodd" d="M16.7972 37.5768C25.3108 34.7412 29.5676 30.0082 29.5676 23.3779V18.4364H4.02681V23.3779C4.02681 30.0082 8.28361 34.7412 16.7972 37.5768ZM7.21941 7.80286L13.1251 6.11685C14.0388 5.85599 14.6688 5.0215 14.6688 4.07197V1.42273H18.9256L17.9838 3.30485C17.4581 4.3554 17.8843 5.63286 18.9356 6.15813C19.0745 6.22753 19.2206 6.28152 19.3713 6.31916L25.3108 7.80286C29.8702 8.94182 32.6965 13.453 31.7918 18.0092L31.696 18.4364H1.89841L1.64906 17.4398C0.601316 13.2521 3.06568 8.9887 7.21941 7.80286Z" stroke="#4C7766" stroke-width="2" stroke-linecap="square"/>
</svg>
