<svg width="53" height="53" viewBox="0 0 53 53" fill="none" xmlns="http://www.w3.org/2000/svg">
<path d="M46.599 14.6814C46.949 16.7306 46.5319 20.9921 42.0635 21.644M30.009 29.4549C30.3095 29.3187 30.6096 29.1554 30.9086 28.9624C34.7717 26.4697 37.8612 26.1023 42.9873 25.3546C48.1134 24.6068 53.5026 19.2473 49.2839 13.0028C45.0651 6.75829 37.0539 9.07026 33.5246 13.0151C29.9952 16.9599 29.3837 13.8809 23.6868 17.4393C17.7981 21.1176 23.7177 32.3061 30.009 29.4549Z" stroke="#4C7766" stroke-width="2" stroke-linecap="round"/>
<path d="M25.3962 38.0781C24.4507 38.0781 22.5597 37.0163 20.6687 38.0781M16.8867 41.2634C16.2564 41.9713 15.1848 44.0241 15.9412 46.5723M36.6315 46.4973C36.3911 46.5403 36.1422 46.5697 35.8843 46.5844C31.529 46.8325 28.9283 48.3747 24.5382 50.8193C20.1482 53.264 13.0509 52.055 12.9411 44.3744C12.8313 36.6938 20.3127 33.818 25.1967 34.9693C30.0806 36.1205 28.885 33.2108 35.244 32.7478C42.0192 32.2544 43.3365 45.2986 36.6315 46.4973Z" stroke="#4C7766" stroke-width="2" stroke-linecap="round"/>
<path d="M15.827 17.2406C16.0028 16.1973 17.2834 14.3082 16.706 12.0242M14.6221 7.25893C14.12 6.43181 12.5231 4.86778 10.1528 5.2286M6.3716 28.0722C6.37868 27.799 6.39927 27.5188 6.43436 27.2316C7.027 22.3798 6.16117 19.2235 4.83844 13.925C3.51572 8.62648 5.89311 1.02014 12.6337 2.327C19.3744 3.63387 20.4996 12.4235 18.5842 17.5984C16.6689 22.7733 19.4371 21.995 18.6599 29.0976C17.8319 36.6651 6.17383 35.6934 6.3716 28.0722Z" stroke="#4C7766" stroke-width="2" stroke-linecap="round"/>
</svg>
