<svg width="24" height="24" viewBox="0 0 24 24" fill="none" xmlns="http://www.w3.org/2000/svg">
<mask id="mask0_40000180_379" style="mask-type:alpha" maskUnits="userSpaceOnUse" x="0" y="0" width="24" height="24">
<rect width="24" height="24" fill="#D9D9D9"/>
</mask>
<g mask="url(#mask0_40000180_379)">
<path d="M12 12C10.9 12 9.95836 11.6083 9.17503 10.825C8.3917 10.0417 8.00003 9.1 8.00003 8C8.00003 6.9 8.3917 5.95833 9.17503 5.175C9.95836 4.39167 10.9 4 12 4C13.1 4 14.0417 4.39167 14.825 5.175C15.6084 5.95833 16 6.9 16 8C16 9.1 15.6084 10.0417 14.825 10.825C14.0417 11.6083 13.1 12 12 12ZM4.00003 20V17.2C4.00003 16.6333 4.14586 16.1125 4.43753 15.6375C4.7292 15.1625 5.1167 14.8 5.60003 14.55C6.63336 14.0333 7.68336 13.6458 8.75003 13.3875C9.8167 13.1292 10.9 13 12 13C13.1 13 14.1834 13.1292 15.25 13.3875C16.3167 13.6458 17.3667 14.0333 18.4 14.55C18.8834 14.8 19.2709 15.1625 19.5625 15.6375C19.8542 16.1125 20 16.6333 20 17.2V20H4.00003ZM6.00003 18H18V17.2C18 17.0167 17.9542 16.85 17.8625 16.7C17.7709 16.55 17.65 16.4333 17.5 16.35C16.6 15.9 15.6917 15.5625 14.775 15.3375C13.8584 15.1125 12.9334 15 12 15C11.0667 15 10.1417 15.1125 9.22503 15.3375C8.30836 15.5625 7.40003 15.9 6.50003 16.35C6.35003 16.4333 6.2292 16.55 6.13753 16.7C6.04586 16.85 6.00003 17.0167 6.00003 17.2V18ZM12 10C12.55 10 13.0209 9.80417 13.4125 9.4125C13.8042 9.02083 14 8.55 14 8C14 7.45 13.8042 6.97917 13.4125 6.5875C13.0209 6.19583 12.55 6 12 6C11.45 6 10.9792 6.19583 10.5875 6.5875C10.1959 6.97917 10 7.45 10 8C10 8.55 10.1959 9.02083 10.5875 9.4125C10.9792 9.80417 11.45 10 12 10Z" fill="#354B43"/>
</g>
</svg>
