<svg width="19" height="18" viewBox="0 0 19 18" fill="none" xmlns="http://www.w3.org/2000/svg">
<path d="M2.37498 18L0.974976 16.6L11.225 6.35C10.925 5.65 10.8833 4.85833 11.1 3.975C11.3166 3.09167 11.7916 2.3 12.525 1.6C13.4083 0.716667 14.3916 0.2 15.475 0.05C16.5583 -0.1 17.4416 0.166667 18.125 0.85C18.8083 1.53333 19.075 2.41667 18.925 3.5C18.775 4.58333 18.2583 5.56667 17.375 6.45C16.675 7.18333 15.8833 7.65833 15 7.875C14.1166 8.09167 13.325 8.05 12.625 7.75L11.375 9L18.975 16.6L17.575 18L9.97498 10.45L2.37498 18ZM5.32498 9.45L2.32498 6.45C1.42498 5.55 0.974976 4.475 0.974976 3.225C0.974976 1.975 1.42498 0.9 2.32498 0L8.52498 6.25L5.32498 9.45Z" fill="#354B43"/>
</svg>
