<svg width="37" height="41" viewBox="0 0 37 41" fill="none" xmlns="http://www.w3.org/2000/svg">
<path d="M11.2187 34.7447C10.641 34.1674 10.2836 33.3699 10.2836 32.489C10.2836 30.7272 11.713 29.2989 13.4762 29.2989C14.3578 29.2989 15.156 29.656 15.7337 30.2333M18.9798 26.9898C18.2095 26.2201 17.733 25.1567 17.733 23.9822C17.733 21.6331 19.6388 19.7288 21.9898 19.7288C23.1653 19.7288 24.2295 20.2048 24.9998 20.9746M27.1817 17.731C26.6039 17.1538 26.2466 16.3562 26.2466 15.4753C26.2466 13.7135 27.676 12.2853 29.4392 12.2853C30.3208 12.2853 31.119 12.6423 31.6967 13.2196M35.8244 14.8314C35.8244 17.2267 34.6263 19.4635 32.6318 20.7921C30.6372 22.1208 29.4392 24.3575 29.4392 26.7528V27.1722C29.4392 29.672 27.7365 31.851 25.3095 32.4573L24.6481 32.6225C22.2528 33.2208 20.1667 34.6898 18.7972 36.7424C17.4675 38.7354 15.2289 39.9325 12.8318 39.9325H3.89842C5.26121 38.5708 6.02682 36.7239 6.02682 34.7982V33.1329C6.02682 30.7377 7.22485 28.5009 9.21941 27.1722C11.2737 25.8038 12.7438 23.7194 13.3426 21.326L13.7661 19.6335C14.2212 17.8147 15.8567 16.5387 17.733 16.5387C19.6896 16.5387 21.4783 15.4341 22.3534 13.6854L23.2787 11.8362C24.4454 9.50465 26.8303 8.03185 29.4392 8.03185H30.686C32.6133 8.03185 34.4616 7.26685 35.8244 5.90514V14.8314ZM4.96262 18.6654C6.72584 18.6654 8.15521 17.2372 8.15521 15.4753C8.15521 13.7135 6.72584 12.2853 4.96262 12.2853C3.19939 12.2853 1.77002 13.7135 1.77002 15.4753C1.77002 17.2372 3.19939 18.6654 4.96262 18.6654ZM4.96262 8.03185C6.72584 8.03185 8.15521 6.60361 8.15521 4.84178C8.15521 3.07996 6.72584 1.65172 4.96262 1.65172C3.19939 1.65172 1.77002 3.07996 1.77002 4.84178C1.77002 6.60361 3.19939 8.03185 4.96262 8.03185ZM15.6046 10.1586C17.3678 10.1586 18.7972 8.73032 18.7972 6.96849C18.7972 5.20667 17.3678 3.77843 15.6046 3.77843C13.8414 3.77843 12.412 5.20667 12.412 6.96849C12.412 8.73032 13.8414 10.1586 15.6046 10.1586Z" stroke="#4C7766" stroke-width="2" stroke-linecap="round"/>
</svg>
