<svg width="32" height="41" viewBox="0 0 32 41" fill="none" xmlns="http://www.w3.org/2000/svg">
<path d="M10.5402 1.00739H21.2919M12.6905 16.0499V1.00739H19.1415V15.8944L29.9878 32.7512C31.263 34.733 30.6723 37.362 28.6684 38.6232C27.9784 39.0575 27.1774 39.2882 26.3595 39.2882H5.50075C3.12555 39.2882 1.20007 37.3839 1.20007 35.0348C1.20007 34.2214 1.43584 33.4252 1.87944 32.7403L12.6905 16.0499ZM5.91695 26.5279H26.0226L30.0128 32.7589C31.2837 34.7435 30.6872 37.3712 28.6806 38.6281C27.9923 39.0593 27.1943 39.2882 26.3795 39.2882H5.50766C3.13246 39.2882 1.20698 37.3839 1.20698 35.0348C1.20698 34.2204 1.44337 33.4231 1.88807 32.7377L5.91695 26.5279Z" stroke="#4C7766" stroke-width="2" stroke-linecap="round"/>
</svg>
